<svg width="193" height="49" viewBox="0 0 193 49" fill="none" xmlns="http://www.w3.org/2000/svg">
<path d="M-6.55651e-07 38.3352V9.97159H6.3892V14.7912H6.72159C7.3125 13.1662 8.29119 11.8982 9.65767 10.9872C11.0241 10.0639 12.6553 9.60227 14.5511 9.60227C16.4716 9.60227 18.0904 10.0701 19.4077 11.0057C20.7372 11.929 21.6728 13.1908 22.2145 14.7912H22.5099C23.1378 13.2154 24.1965 11.9598 25.6861 11.0241C27.188 10.0762 28.9669 9.60227 31.0227 9.60227C33.6326 9.60227 35.7623 10.4271 37.4119 12.0767C39.0616 13.7263 39.8864 16.133 39.8864 19.2969V38.3352H33.1832V20.331C33.1832 18.5705 32.7154 17.2841 31.7798 16.4716C30.8442 15.6468 29.6993 15.2344 28.3452 15.2344C26.7325 15.2344 25.4706 15.7391 24.5597 16.7486C23.661 17.7457 23.2116 19.0445 23.2116 20.6449V38.3352H16.6563V20.054C16.6563 18.589 16.2131 17.4195 15.3267 16.5455C14.4527 15.6714 13.3078 15.2344 11.892 15.2344C10.9318 15.2344 10.0578 15.4806 9.26989 15.973C8.48201 16.4531 7.85417 17.1364 7.38636 18.0227C6.91856 18.8968 6.68466 19.9186 6.68466 21.0881V38.3352H-6.55651e-07ZM47.2072 48.9716C46.2962 48.9716 45.4529 48.8977 44.6773 48.75C43.9141 48.6146 43.3047 48.4545 42.8492 48.2699L44.4004 43.0625C45.3729 43.3456 46.2408 43.4811 47.004 43.4688C47.7673 43.4564 48.4382 43.2164 49.0168 42.7486C49.6077 42.2931 50.1063 41.5298 50.5126 40.4588L51.085 38.9261L40.7995 9.97159H47.8904L54.4273 31.392H54.7228L61.2782 9.97159H68.3876L57.031 41.7699C56.5017 43.2718 55.8 44.5582 54.9259 45.6293C54.0519 46.7126 52.9808 47.5374 51.7129 48.1037C50.4572 48.6823 48.9553 48.9716 47.2072 48.9716Z" fill="#8B959E"/>
<path d="M104.501 19.4261C104.501 23.5009 103.738 26.991 102.212 29.8963C100.697 32.7893 98.6292 35.0052 96.007 36.544C93.3972 38.0829 90.4365 38.8523 87.1249 38.8523C83.8134 38.8523 80.8465 38.0829 78.2244 36.544C75.6145 34.9929 73.5463 32.7708 72.0198 29.8778C70.5056 26.9725 69.7485 23.4886 69.7485 19.4261C69.7485 15.3513 70.5056 11.8674 72.0198 8.97443C73.5463 6.06913 75.6145 3.84706 78.2244 2.30824C80.8465 0.769412 83.8134 -7.15256e-07 87.1249 -7.15256e-07C90.4365 -7.15256e-07 93.3972 0.769412 96.007 2.30824C98.6292 3.84706 100.697 6.06913 102.212 8.97443C103.738 11.8674 104.501 15.3513 104.501 19.4261ZM97.6136 19.4261C97.6136 16.5578 97.1642 14.1387 96.2656 12.169C95.3792 10.187 94.1481 8.69129 92.5724 7.68182C90.9966 6.66004 89.1808 6.14915 87.1249 6.14915C85.0691 6.14915 83.2532 6.66004 81.6775 7.68182C80.1017 8.69129 78.8645 10.187 77.9658 12.169C77.0795 14.1387 76.6363 16.5578 76.6363 19.4261C76.6363 22.2945 77.0795 24.7197 77.9658 26.7017C78.8645 28.6714 80.1017 30.1671 81.6775 31.1889C83.2532 32.1984 85.0691 32.7031 87.1249 32.7031C89.1808 32.7031 90.9966 32.1984 92.5724 31.1889C94.1481 30.1671 95.3792 28.6714 96.2656 26.7017C97.1642 24.7197 97.6136 22.2945 97.6136 19.4261ZM140.749 13.277H133.843C133.646 12.1444 133.283 11.1411 132.753 10.267C132.224 9.38068 131.565 8.62973 130.777 8.0142C129.99 7.39867 129.091 6.93703 128.081 6.62926C127.084 6.30919 126.007 6.14915 124.85 6.14915C122.794 6.14915 120.972 6.66619 119.384 7.70028C117.796 8.72206 116.553 10.224 115.654 12.206C114.755 14.1757 114.306 16.5824 114.306 19.4261C114.306 22.3191 114.755 24.7566 115.654 26.7386C116.565 28.7083 117.808 30.1979 119.384 31.2074C120.972 32.2045 122.788 32.7031 124.831 32.7031C125.964 32.7031 127.023 32.5554 128.008 32.2599C129.005 31.9522 129.897 31.5028 130.685 30.9119C131.485 30.321 132.156 29.5947 132.698 28.733C133.252 27.8712 133.633 26.8864 133.843 25.7784L140.749 25.8153C140.49 27.6127 139.93 29.2992 139.069 30.875C138.219 32.4508 137.105 33.8419 135.726 35.0483C134.347 36.2424 132.735 37.178 130.888 37.8551C129.042 38.5199 126.992 38.8523 124.739 38.8523C121.415 38.8523 118.448 38.0829 115.838 36.544C113.229 35.0052 111.173 32.7831 109.671 29.8778C108.169 26.9725 107.418 23.4886 107.418 19.4261C107.418 15.3513 108.175 11.8674 109.689 8.97443C111.204 6.06913 113.266 3.84706 115.875 2.30824C118.485 0.769412 121.44 -7.15256e-07 124.739 -7.15256e-07C126.844 -7.15256e-07 128.802 0.295454 130.611 0.886362C132.421 1.47727 134.034 2.34517 135.449 3.49006C136.865 4.62263 138.028 6.01373 138.939 7.66335C139.863 9.30066 140.466 11.1719 140.749 13.277ZM152.382 38.3352L141.708 0.517045H149.076L155.89 28.3082H156.241L163.517 0.517045H170.22L177.514 28.3267H177.846L184.66 0.517045H192.028L181.355 38.3352H174.596L167.025 11.7997H166.73L159.14 38.3352H152.382Z" fill="#750014"/>
</svg>

